<svg xmlns="http://www.w3.org/2000/svg" xmlns:xlink="http://www.w3.org/1999/xlink" width="300" zoomAndPan="magnify" viewBox="0 0 224.87999 112.499997" height="150" preserveAspectRatio="xMidYMid meet" version="1.0"><defs><g/></defs><path fill="#000000" d="M 175.601562 65.753906 C 175.578125 61.359375 175.539062 54.175781 175.523438 49.789062 C 175.503906 45.398438 178.785156 43.585938 182.535156 45.765625 C 186.292969 47.941406 192.542969 51.503906 196.300781 53.671875 C 200.050781 55.851562 200.128906 59.4375 196.398438 61.65625 C 192.667969 63.871094 186.363281 67.492188 182.628906 69.707031 C 178.902344 71.921875 175.625 70.144531 175.601562 65.753906 Z M 175.601562 65.753906 " fill-opacity="1" fill-rule="nonzero"/><path fill="#8cc640" d="M 167.703125 54.492188 C 167.957031 39.039062 171.933594 31.808594 176.890625 28.3125 C 179.660156 26.746094 181.9375 26.449219 184.066406 26.402344 C 185.632812 26.363281 187.140625 26.496094 188.589844 26.753906 C 193.199219 27.34375 203.324219 30.390625 212.960938 39.285156 C 207.835938 26.203125 192.222656 17.269531 177.917969 19.351562 C 166.921875 20.945312 157.378906 29.957031 156.453125 49.613281 C 155.664062 66.472656 163.140625 77.179688 168.867188 75.710938 C 168.253906 67.628906 167.609375 60 167.703125 54.492188 Z M 167.703125 54.492188 " fill-opacity="1" fill-rule="nonzero"/><path fill="#f15b26" d="M 189.425781 73.445312 C 175.949219 81.011719 167.699219 81.226562 162.183594 78.707031 C 159.433594 77.101562 158.027344 75.289062 156.914062 73.480469 C 156.089844 72.144531 155.445312 70.78125 154.941406 69.390625 C 153.125 65.117188 150.65625 54.835938 153.480469 42.03125 C 144.761719 53.046875 144.917969 71.035156 153.921875 82.339844 C 160.847656 91.027344 173.4375 94.726562 190.878906 85.621094 C 205.84375 77.804688 211.320312 65.953125 207.160156 61.75 C 200.503906 66.351562 194.234375 70.75 189.425781 73.445312 Z M 189.425781 73.445312 " fill-opacity="1" fill-rule="nonzero"/><path fill="#29aae2" d="M 195.101562 45.214844 C 208.300781 53.253906 212.539062 60.335938 213.042969 66.382812 C 212.992188 69.570312 212.097656 71.679688 211.070312 73.539062 C 210.3125 74.914062 209.4375 76.144531 208.480469 77.269531 C 205.644531 80.945312 197.894531 88.140625 185.34375 91.949219 C 199.21875 94.144531 214.820312 85.199219 220.261719 71.800781 C 224.4375 61.511719 221.488281 48.722656 205 37.984375 C 190.855469 28.773438 177.839844 29.808594 176.210938 35.488281 C 183.488281 39.046875 190.394531 42.351562 195.101562 45.214844 Z M 195.101562 45.214844 " fill-opacity="1" fill-rule="nonzero"/><g fill="#000000" fill-opacity="1"><g transform="translate(2.241225, 52.245186)"><g><path d="M 4.765625 0 L 2.140625 0 L 3.703125 -8.125 L 1.140625 -8.125 L 1.59375 -10.5 L 9.34375 -10.5 L 8.890625 -8.125 L 6.328125 -8.125 Z M 4.765625 0 "/></g></g></g><g fill="#000000" fill-opacity="1"><g transform="translate(10.025188, 52.245186)"><g><path d="M 4.96875 -8 C 5.71875 -8 6.378906 -7.832031 6.953125 -7.5 C 7.535156 -7.175781 7.988281 -6.734375 8.3125 -6.171875 C 8.632812 -5.617188 8.796875 -5.003906 8.796875 -4.328125 C 8.796875 -3.921875 8.738281 -3.535156 8.625 -3.171875 L 2.8125 -3.171875 C 2.875 -2.679688 3.046875 -2.3125 3.328125 -2.0625 C 3.609375 -1.8125 3.976562 -1.6875 4.4375 -1.6875 C 4.789062 -1.6875 5.101562 -1.757812 5.375 -1.90625 C 5.644531 -2.050781 5.835938 -2.234375 5.953125 -2.453125 L 8.421875 -2.453125 C 8.097656 -1.691406 7.570312 -1.0625 6.84375 -0.5625 C 6.125 -0.0625 5.265625 0.1875 4.265625 0.1875 C 3.535156 0.1875 2.875 0.0351562 2.28125 -0.265625 C 1.695312 -0.578125 1.238281 -1.007812 0.90625 -1.5625 C 0.570312 -2.125 0.40625 -2.753906 0.40625 -3.453125 C 0.40625 -4.242188 0.597656 -4.984375 0.984375 -5.671875 C 1.378906 -6.367188 1.921875 -6.929688 2.609375 -7.359375 C 3.304688 -7.785156 4.09375 -8 4.96875 -8 Z M 4.875 -6.109375 C 4.4375 -6.109375 4.054688 -5.984375 3.734375 -5.734375 C 3.421875 -5.484375 3.1875 -5.144531 3.03125 -4.71875 L 6.453125 -4.71875 C 6.421875 -5.132812 6.269531 -5.46875 6 -5.71875 C 5.726562 -5.976562 5.351562 -6.109375 4.875 -6.109375 Z M 4.875 -6.109375 "/></g></g></g><g fill="#000000" fill-opacity="1"><g transform="translate(18.664048, 52.245186)"><g><path d="M 2.796875 0 L 0.28125 0 L 2.359375 -10.796875 L 4.859375 -10.796875 Z M 2.796875 0 "/></g></g></g><g fill="#000000" fill-opacity="1"><g transform="translate(22.653453, 52.245186)"><g><path d="M 4.96875 -8 C 5.71875 -8 6.378906 -7.832031 6.953125 -7.5 C 7.535156 -7.175781 7.988281 -6.734375 8.3125 -6.171875 C 8.632812 -5.617188 8.796875 -5.003906 8.796875 -4.328125 C 8.796875 -3.921875 8.738281 -3.535156 8.625 -3.171875 L 2.8125 -3.171875 C 2.875 -2.679688 3.046875 -2.3125 3.328125 -2.0625 C 3.609375 -1.8125 3.976562 -1.6875 4.4375 -1.6875 C 4.789062 -1.6875 5.101562 -1.757812 5.375 -1.90625 C 5.644531 -2.050781 5.835938 -2.234375 5.953125 -2.453125 L 8.421875 -2.453125 C 8.097656 -1.691406 7.570312 -1.0625 6.84375 -0.5625 C 6.125 -0.0625 5.265625 0.1875 4.265625 0.1875 C 3.535156 0.1875 2.875 0.0351562 2.28125 -0.265625 C 1.695312 -0.578125 1.238281 -1.007812 0.90625 -1.5625 C 0.570312 -2.125 0.40625 -2.753906 0.40625 -3.453125 C 0.40625 -4.242188 0.597656 -4.984375 0.984375 -5.671875 C 1.378906 -6.367188 1.921875 -6.929688 2.609375 -7.359375 C 3.304688 -7.785156 4.09375 -8 4.96875 -8 Z M 4.875 -6.109375 C 4.4375 -6.109375 4.054688 -5.984375 3.734375 -5.734375 C 3.421875 -5.484375 3.1875 -5.144531 3.03125 -4.71875 L 6.453125 -4.71875 C 6.421875 -5.132812 6.269531 -5.46875 6 -5.71875 C 5.726562 -5.976562 5.351562 -6.109375 4.875 -6.109375 Z M 4.875 -6.109375 "/></g></g></g><g fill="#000000" fill-opacity="1"><g transform="translate(31.292313, 52.245186)"><g><path d="M 4.328125 0.1875 C 3.628906 0.1875 2.976562 0.0351562 2.375 -0.265625 C 1.78125 -0.578125 1.300781 -1.007812 0.9375 -1.5625 C 0.582031 -2.125 0.40625 -2.757812 0.40625 -3.46875 C 0.40625 -4.28125 0.609375 -5.035156 1.015625 -5.734375 C 1.421875 -6.429688 1.976562 -6.984375 2.6875 -7.390625 C 3.40625 -7.796875 4.207031 -8 5.09375 -8 C 5.726562 -8 6.320312 -7.875 6.875 -7.625 C 7.4375 -7.375 7.898438 -7.007812 8.265625 -6.53125 C 8.640625 -6.050781 8.875 -5.476562 8.96875 -4.8125 L 6.453125 -4.8125 C 6.328125 -5.101562 6.128906 -5.335938 5.859375 -5.515625 C 5.597656 -5.691406 5.285156 -5.78125 4.921875 -5.78125 C 4.503906 -5.78125 4.140625 -5.671875 3.828125 -5.453125 C 3.523438 -5.242188 3.289062 -4.972656 3.125 -4.640625 C 2.96875 -4.316406 2.890625 -3.972656 2.890625 -3.609375 C 2.890625 -3.148438 3.046875 -2.769531 3.359375 -2.46875 C 3.671875 -2.164062 4.0625 -2.015625 4.53125 -2.015625 C 5.300781 -2.015625 5.863281 -2.332031 6.21875 -2.96875 L 8.78125 -2.96875 C 8.457031 -1.9375 7.882812 -1.148438 7.0625 -0.609375 C 6.238281 -0.078125 5.328125 0.1875 4.328125 0.1875 Z M 4.328125 0.1875 "/></g></g></g><g fill="#000000" fill-opacity="1"><g transform="translate(39.976169, 52.245186)"><g><path d="M 4.34375 0.1875 C 3.65625 0.1875 3.007812 0.0351562 2.40625 -0.265625 C 1.800781 -0.566406 1.316406 -1 0.953125 -1.5625 C 0.585938 -2.125 0.40625 -2.757812 0.40625 -3.46875 C 0.40625 -4.28125 0.609375 -5.035156 1.015625 -5.734375 C 1.421875 -6.429688 1.984375 -6.984375 2.703125 -7.390625 C 3.421875 -7.796875 4.226562 -8 5.125 -8 C 5.832031 -8 6.488281 -7.84375 7.09375 -7.53125 C 7.707031 -7.21875 8.191406 -6.78125 8.546875 -6.21875 C 8.910156 -5.664062 9.09375 -5.03125 9.09375 -4.3125 C 9.09375 -3.488281 8.882812 -2.726562 8.46875 -2.03125 C 8.0625 -1.34375 7.5 -0.800781 6.78125 -0.40625 C 6.0625 -0.0078125 5.25 0.1875 4.34375 0.1875 Z M 4.578125 -2.046875 C 4.992188 -2.046875 5.351562 -2.144531 5.65625 -2.34375 C 5.96875 -2.539062 6.203125 -2.800781 6.359375 -3.125 C 6.523438 -3.445312 6.609375 -3.785156 6.609375 -4.140625 C 6.609375 -4.585938 6.453125 -4.96875 6.140625 -5.28125 C 5.828125 -5.601562 5.421875 -5.765625 4.921875 -5.765625 C 4.515625 -5.765625 4.15625 -5.660156 3.84375 -5.453125 C 3.53125 -5.253906 3.289062 -4.992188 3.125 -4.671875 C 2.96875 -4.347656 2.890625 -4.003906 2.890625 -3.640625 C 2.890625 -3.191406 3.046875 -2.8125 3.359375 -2.5 C 3.679688 -2.195312 4.085938 -2.046875 4.578125 -2.046875 Z M 4.578125 -2.046875 "/></g></g></g><g fill="#000000" fill-opacity="1"><g transform="translate(48.884999, 52.245186)"><g><path d="M 10.75 -8 C 11.53125 -8 12.160156 -7.753906 12.640625 -7.265625 C 13.117188 -6.785156 13.359375 -6.132812 13.359375 -5.3125 C 13.359375 -5.007812 13.335938 -4.738281 13.296875 -4.5 L 12.421875 0 L 9.921875 0 L 10.71875 -4.203125 C 10.75 -4.367188 10.765625 -4.519531 10.765625 -4.65625 C 10.765625 -5 10.675781 -5.269531 10.5 -5.46875 C 10.320312 -5.664062 10.066406 -5.765625 9.734375 -5.765625 C 9.398438 -5.765625 9.117188 -5.648438 8.890625 -5.421875 C 8.660156 -5.203125 8.503906 -4.875 8.421875 -4.4375 L 7.5625 0 L 5.0625 0 L 5.859375 -4.203125 C 5.890625 -4.367188 5.90625 -4.519531 5.90625 -4.65625 C 5.90625 -5 5.816406 -5.269531 5.640625 -5.46875 C 5.460938 -5.664062 5.207031 -5.765625 4.875 -5.765625 C 4.539062 -5.765625 4.257812 -5.648438 4.03125 -5.421875 C 3.800781 -5.203125 3.644531 -4.875 3.5625 -4.4375 L 2.703125 0 L 0.1875 0 L 1.703125 -7.796875 L 3.96875 -7.796875 L 3.84375 -7.140625 C 4.4375 -7.710938 5.117188 -8 5.890625 -8 C 6.390625 -8 6.832031 -7.882812 7.21875 -7.65625 C 7.613281 -7.425781 7.910156 -7.125 8.109375 -6.75 C 8.867188 -7.582031 9.75 -8 10.75 -8 Z M 10.75 -8 "/></g></g></g><g fill="#000000" fill-opacity="1"><g transform="translate(62.353295, 52.245186)"><g><path d="M 10.75 -8 C 11.53125 -8 12.160156 -7.753906 12.640625 -7.265625 C 13.117188 -6.785156 13.359375 -6.132812 13.359375 -5.3125 C 13.359375 -5.007812 13.335938 -4.738281 13.296875 -4.5 L 12.421875 0 L 9.921875 0 L 10.71875 -4.203125 C 10.75 -4.367188 10.765625 -4.519531 10.765625 -4.65625 C 10.765625 -5 10.675781 -5.269531 10.5 -5.46875 C 10.320312 -5.664062 10.066406 -5.765625 9.734375 -5.765625 C 9.398438 -5.765625 9.117188 -5.648438 8.890625 -5.421875 C 8.660156 -5.203125 8.503906 -4.875 8.421875 -4.4375 L 7.5625 0 L 5.0625 0 L 5.859375 -4.203125 C 5.890625 -4.367188 5.90625 -4.519531 5.90625 -4.65625 C 5.90625 -5 5.816406 -5.269531 5.640625 -5.46875 C 5.460938 -5.664062 5.207031 -5.765625 4.875 -5.765625 C 4.539062 -5.765625 4.257812 -5.648438 4.03125 -5.421875 C 3.800781 -5.203125 3.644531 -4.875 3.5625 -4.4375 L 2.703125 0 L 0.1875 0 L 1.703125 -7.796875 L 3.96875 -7.796875 L 3.84375 -7.140625 C 4.4375 -7.710938 5.117188 -8 5.890625 -8 C 6.390625 -8 6.832031 -7.882812 7.21875 -7.65625 C 7.613281 -7.425781 7.910156 -7.125 8.109375 -6.75 C 8.867188 -7.582031 9.75 -8 10.75 -8 Z M 10.75 -8 "/></g></g></g><g fill="#000000" fill-opacity="1"><g transform="translate(75.821594, 52.245186)"><g><path d="M 4.359375 0.1875 C 3.617188 0.1875 2.984375 0.0546875 2.453125 -0.203125 C 1.921875 -0.472656 1.507812 -0.847656 1.21875 -1.328125 C 0.9375 -1.816406 0.796875 -2.375 0.796875 -3 C 0.796875 -3.28125 0.828125 -3.578125 0.890625 -3.890625 L 1.640625 -7.796875 L 4.125 -7.796875 L 3.3125 -3.5625 C 3.289062 -3.40625 3.28125 -3.296875 3.28125 -3.234375 C 3.28125 -2.890625 3.382812 -2.601562 3.59375 -2.375 C 3.8125 -2.15625 4.09375 -2.046875 4.4375 -2.046875 C 4.8125 -2.046875 5.125 -2.171875 5.375 -2.421875 C 5.632812 -2.671875 5.796875 -2.976562 5.859375 -3.34375 L 6.703125 -7.796875 L 9.203125 -7.796875 L 8.359375 -3.265625 C 8.160156 -2.234375 7.722656 -1.398438 7.046875 -0.765625 C 6.378906 -0.128906 5.484375 0.1875 4.359375 0.1875 Z M 4.359375 0.1875 "/></g></g></g><g fill="#000000" fill-opacity="1"><g transform="translate(84.595439, 52.245186)"><g><path d="M 5.984375 -8 C 6.535156 -8 7.03125 -7.878906 7.46875 -7.640625 C 7.90625 -7.410156 8.25 -7.078125 8.5 -6.640625 C 8.75 -6.203125 8.875 -5.6875 8.875 -5.09375 C 8.875 -4.789062 8.851562 -4.519531 8.8125 -4.28125 L 7.984375 0 L 5.46875 0 L 6.265625 -4.125 C 6.296875 -4.269531 6.3125 -4.410156 6.3125 -4.546875 C 6.3125 -4.910156 6.203125 -5.203125 5.984375 -5.421875 C 5.765625 -5.648438 5.46875 -5.765625 5.09375 -5.765625 C 4.675781 -5.765625 4.332031 -5.632812 4.0625 -5.375 C 3.789062 -5.113281 3.617188 -4.757812 3.546875 -4.3125 L 2.703125 0 L 0.1875 0 L 1.703125 -7.796875 L 4.015625 -7.796875 L 3.90625 -7.1875 C 4.582031 -7.726562 5.273438 -8 5.984375 -8 Z M 5.984375 -8 "/></g></g></g><g fill="#000000" fill-opacity="1"><g transform="translate(93.624256, 52.245186)"><g><path d="M 2.703125 0 L 0.1875 0 L 1.703125 -7.796875 L 4.203125 -7.796875 Z M 4.484375 -9 L 1.875 -9 L 2.265625 -11.015625 L 4.875 -11.015625 Z M 4.484375 -9 "/></g></g></g><g fill="#000000" fill-opacity="1"><g transform="translate(97.448682, 52.245186)"><g><path d="M 4.328125 0.1875 C 3.628906 0.1875 2.976562 0.0351562 2.375 -0.265625 C 1.78125 -0.578125 1.300781 -1.007812 0.9375 -1.5625 C 0.582031 -2.125 0.40625 -2.757812 0.40625 -3.46875 C 0.40625 -4.28125 0.609375 -5.035156 1.015625 -5.734375 C 1.421875 -6.429688 1.976562 -6.984375 2.6875 -7.390625 C 3.40625 -7.796875 4.207031 -8 5.09375 -8 C 5.726562 -8 6.320312 -7.875 6.875 -7.625 C 7.4375 -7.375 7.898438 -7.007812 8.265625 -6.53125 C 8.640625 -6.050781 8.875 -5.476562 8.96875 -4.8125 L 6.453125 -4.8125 C 6.328125 -5.101562 6.128906 -5.335938 5.859375 -5.515625 C 5.597656 -5.691406 5.285156 -5.78125 4.921875 -5.78125 C 4.503906 -5.78125 4.140625 -5.671875 3.828125 -5.453125 C 3.523438 -5.242188 3.289062 -4.972656 3.125 -4.640625 C 2.96875 -4.316406 2.890625 -3.972656 2.890625 -3.609375 C 2.890625 -3.148438 3.046875 -2.769531 3.359375 -2.46875 C 3.671875 -2.164062 4.0625 -2.015625 4.53125 -2.015625 C 5.300781 -2.015625 5.863281 -2.332031 6.21875 -2.96875 L 8.78125 -2.96875 C 8.457031 -1.9375 7.882812 -1.148438 7.0625 -0.609375 C 6.238281 -0.078125 5.328125 0.1875 4.328125 0.1875 Z M 4.328125 0.1875 "/></g></g></g><g fill="#000000" fill-opacity="1"><g transform="translate(106.132534, 52.245186)"><g><path d="M 7.5 -7.796875 L 9.828125 -7.796875 L 8.328125 0 L 6.03125 0 L 6.171875 -0.703125 C 5.566406 -0.109375 4.78125 0.1875 3.8125 0.1875 C 3.195312 0.1875 2.628906 0.03125 2.109375 -0.28125 C 1.597656 -0.601562 1.191406 -1.039062 0.890625 -1.59375 C 0.585938 -2.15625 0.4375 -2.769531 0.4375 -3.4375 C 0.4375 -4.25 0.628906 -5.003906 1.015625 -5.703125 C 1.398438 -6.398438 1.925781 -6.957031 2.59375 -7.375 C 3.257812 -7.789062 4 -8 4.8125 -8 C 5.414062 -8 5.921875 -7.890625 6.328125 -7.671875 C 6.742188 -7.460938 7.070312 -7.195312 7.3125 -6.875 Z M 4.640625 -2.03125 C 5.054688 -2.03125 5.414062 -2.128906 5.71875 -2.328125 C 6.03125 -2.535156 6.269531 -2.800781 6.4375 -3.125 C 6.601562 -3.445312 6.6875 -3.789062 6.6875 -4.15625 C 6.6875 -4.601562 6.523438 -4.984375 6.203125 -5.296875 C 5.890625 -5.617188 5.484375 -5.78125 4.984375 -5.78125 C 4.566406 -5.78125 4.203125 -5.675781 3.890625 -5.46875 C 3.578125 -5.269531 3.335938 -5.003906 3.171875 -4.671875 C 3.003906 -4.347656 2.921875 -4.003906 2.921875 -3.640625 C 2.921875 -3.191406 3.082031 -2.8125 3.40625 -2.5 C 3.726562 -2.1875 4.140625 -2.03125 4.640625 -2.03125 Z M 4.640625 -2.03125 "/></g></g></g><g fill="#000000" fill-opacity="1"><g transform="translate(115.566301, 52.245186)"><g><path d="M 4.359375 -5.59375 L 3.9375 -3.375 C 3.914062 -3.25 3.90625 -3.164062 3.90625 -3.125 C 3.90625 -2.84375 4 -2.617188 4.1875 -2.453125 C 4.375 -2.296875 4.625 -2.21875 4.9375 -2.21875 L 5.515625 -2.21875 L 5.078125 0 L 4.109375 0 C 3.222656 0 2.535156 -0.21875 2.046875 -0.65625 C 1.554688 -1.101562 1.3125 -1.703125 1.3125 -2.453125 C 1.3125 -2.660156 1.332031 -2.898438 1.375 -3.171875 L 1.859375 -5.59375 L 0.578125 -5.59375 L 1.015625 -7.796875 L 2.296875 -7.796875 L 2.703125 -9.875 L 5.203125 -9.875 L 4.796875 -7.796875 L 6.59375 -7.796875 L 6.171875 -5.59375 Z M 4.359375 -5.59375 "/></g></g></g><g fill="#000000" fill-opacity="1"><g transform="translate(121.460484, 52.245186)"><g><path d="M 2.703125 0 L 0.1875 0 L 1.703125 -7.796875 L 4.203125 -7.796875 Z M 4.484375 -9 L 1.875 -9 L 2.265625 -11.015625 L 4.875 -11.015625 Z M 4.484375 -9 "/></g></g></g><g fill="#000000" fill-opacity="1"><g transform="translate(125.284902, 52.245186)"><g><path d="M 4.34375 0.1875 C 3.65625 0.1875 3.007812 0.0351562 2.40625 -0.265625 C 1.800781 -0.566406 1.316406 -1 0.953125 -1.5625 C 0.585938 -2.125 0.40625 -2.757812 0.40625 -3.46875 C 0.40625 -4.28125 0.609375 -5.035156 1.015625 -5.734375 C 1.421875 -6.429688 1.984375 -6.984375 2.703125 -7.390625 C 3.421875 -7.796875 4.226562 -8 5.125 -8 C 5.832031 -8 6.488281 -7.84375 7.09375 -7.53125 C 7.707031 -7.21875 8.191406 -6.78125 8.546875 -6.21875 C 8.910156 -5.664062 9.09375 -5.03125 9.09375 -4.3125 C 9.09375 -3.488281 8.882812 -2.726562 8.46875 -2.03125 C 8.0625 -1.34375 7.5 -0.800781 6.78125 -0.40625 C 6.0625 -0.0078125 5.25 0.1875 4.34375 0.1875 Z M 4.578125 -2.046875 C 4.992188 -2.046875 5.351562 -2.144531 5.65625 -2.34375 C 5.96875 -2.539062 6.203125 -2.800781 6.359375 -3.125 C 6.523438 -3.445312 6.609375 -3.785156 6.609375 -4.140625 C 6.609375 -4.585938 6.453125 -4.96875 6.140625 -5.28125 C 5.828125 -5.601562 5.421875 -5.765625 4.921875 -5.765625 C 4.515625 -5.765625 4.15625 -5.660156 3.84375 -5.453125 C 3.53125 -5.253906 3.289062 -4.992188 3.125 -4.671875 C 2.96875 -4.347656 2.890625 -4.003906 2.890625 -3.640625 C 2.890625 -3.191406 3.046875 -2.8125 3.359375 -2.5 C 3.679688 -2.195312 4.085938 -2.046875 4.578125 -2.046875 Z M 4.578125 -2.046875 "/></g></g></g><g fill="#000000" fill-opacity="1"><g transform="translate(134.193739, 52.245186)"><g><path d="M 5.984375 -8 C 6.535156 -8 7.03125 -7.878906 7.46875 -7.640625 C 7.90625 -7.410156 8.25 -7.078125 8.5 -6.640625 C 8.75 -6.203125 8.875 -5.6875 8.875 -5.09375 C 8.875 -4.789062 8.851562 -4.519531 8.8125 -4.28125 L 7.984375 0 L 5.46875 0 L 6.265625 -4.125 C 6.296875 -4.269531 6.3125 -4.410156 6.3125 -4.546875 C 6.3125 -4.910156 6.203125 -5.203125 5.984375 -5.421875 C 5.765625 -5.648438 5.46875 -5.765625 5.09375 -5.765625 C 4.675781 -5.765625 4.332031 -5.632812 4.0625 -5.375 C 3.789062 -5.113281 3.617188 -4.757812 3.546875 -4.3125 L 2.703125 0 L 0.1875 0 L 1.703125 -7.796875 L 4.015625 -7.796875 L 3.90625 -7.1875 C 4.582031 -7.726562 5.273438 -8 5.984375 -8 Z M 5.984375 -8 "/></g></g></g><g fill="#000000" fill-opacity="1"><g transform="translate(143.224147, 52.245186)"><g/></g></g><g fill="#8dc641" fill-opacity="1"><g transform="translate(35.772971, 68.222579)"><g><path d="M 5.328125 -3.40625 C 5.648438 -3.28125 5.894531 -3.082031 6.0625 -2.8125 C 6.226562 -2.550781 6.3125 -2.269531 6.3125 -1.96875 C 6.3125 -1.363281 6.082031 -0.882812 5.625 -0.53125 C 5.164062 -0.175781 4.488281 0 3.59375 0 L 0.53125 0 L 0.53125 -6.59375 L 3.28125 -6.59375 C 4.164062 -6.59375 4.835938 -6.414062 5.296875 -6.0625 C 5.765625 -5.707031 6 -5.226562 6 -4.625 C 6 -4.375 5.941406 -4.125 5.828125 -3.875 C 5.710938 -3.632812 5.546875 -3.476562 5.328125 -3.40625 Z M 2.265625 -3.859375 L 3.28125 -3.859375 C 3.925781 -3.859375 4.25 -4.082031 4.25 -4.53125 C 4.25 -4.757812 4.160156 -4.9375 3.984375 -5.0625 C 3.804688 -5.195312 3.570312 -5.265625 3.28125 -5.265625 L 2.265625 -5.265625 Z M 3.609375 -1.328125 C 4.253906 -1.328125 4.578125 -1.554688 4.578125 -2.015625 C 4.578125 -2.242188 4.492188 -2.398438 4.328125 -2.484375 C 4.171875 -2.578125 3.929688 -2.625 3.609375 -2.625 L 2.265625 -2.625 L 2.265625 -1.328125 Z M 3.609375 -1.328125 "/></g></g></g><g fill="#8dc641" fill-opacity="1"><g transform="translate(44.847076, 68.222579)"><g><path d="M 0.546875 -6.59375 L 2.28125 -6.59375 L 2.28125 0 L 0.546875 0 Z M 0.546875 -6.59375 "/></g></g></g><g fill="#8dc641" fill-opacity="1"><g transform="translate(50.230584, 68.222579)"><g><path d="M 0.53125 -6.59375 L 2.265625 -6.59375 L 2.265625 -1.328125 L 5.5 -1.328125 L 5.5 0 L 0.53125 0 Z M 0.53125 -6.59375 "/></g></g></g><g fill="#8dc641" fill-opacity="1"><g transform="translate(58.548517, 68.222579)"><g><path d="M 0.53125 -6.59375 L 2.265625 -6.59375 L 2.265625 -1.328125 L 5.5 -1.328125 L 5.5 0 L 0.53125 0 Z M 0.53125 -6.59375 "/></g></g></g><g fill="#8dc641" fill-opacity="1"><g transform="translate(66.866448, 68.222579)"><g><path d="M 0.546875 -6.59375 L 2.28125 -6.59375 L 2.28125 0 L 0.546875 0 Z M 0.546875 -6.59375 "/></g></g></g><g fill="#8dc641" fill-opacity="1"><g transform="translate(72.249955, 68.222579)"><g><path d="M 2.265625 -4.015625 L 2.265625 0 L 0.53125 0 L 0.53125 -6.59375 L 2.484375 -6.59375 L 5.09375 -2.6875 L 5.09375 -6.59375 L 6.828125 -6.59375 L 6.828125 0 L 4.921875 0 Z M 2.265625 -4.015625 "/></g></g></g><g fill="#8dc641" fill-opacity="1"><g transform="translate(82.170529, 68.222579)"><g><path d="M 3.75 0.0625 C 2.59375 0.0625 1.703125 -0.316406 1.078125 -1.078125 C 0.554688 -1.691406 0.296875 -2.410156 0.296875 -3.234375 C 0.296875 -4.128906 0.550781 -4.898438 1.0625 -5.546875 C 1.695312 -6.328125 2.585938 -6.71875 3.734375 -6.71875 C 4.640625 -6.71875 5.375 -6.503906 5.9375 -6.078125 C 6.507812 -5.660156 6.847656 -5.097656 6.953125 -4.390625 L 5.1875 -4.390625 C 5.1875 -4.710938 5.054688 -4.957031 4.796875 -5.125 C 4.546875 -5.300781 4.226562 -5.390625 3.84375 -5.390625 C 3.289062 -5.390625 2.851562 -5.191406 2.53125 -4.796875 C 2.207031 -4.398438 2.046875 -3.878906 2.046875 -3.234375 C 2.046875 -2.640625 2.195312 -2.160156 2.5 -1.796875 C 2.8125 -1.441406 3.222656 -1.265625 3.734375 -1.265625 C 4.210938 -1.265625 4.582031 -1.335938 4.84375 -1.484375 C 5.101562 -1.640625 5.296875 -1.910156 5.421875 -2.296875 L 4.25 -2.296875 L 4.25 -3.5625 L 6.921875 -3.5625 L 6.921875 0 L 5.65625 0 L 5.609375 -0.546875 C 5.128906 -0.140625 4.507812 0.0625 3.75 0.0625 Z M 3.75 0.0625 "/></g></g></g><g fill="#27aae2" fill-opacity="1"><g transform="translate(96.845051, 68.222579)"><g><path d="M 0.546875 -6.59375 L 2.28125 -6.59375 L 2.28125 0 L 0.546875 0 Z M 0.546875 -6.59375 "/></g></g></g><g fill="#27aae2" fill-opacity="1"><g transform="translate(102.22856, 68.222579)"><g><path d="M 2.265625 -4.015625 L 2.265625 0 L 0.53125 0 L 0.53125 -6.59375 L 2.484375 -6.59375 L 5.09375 -2.6875 L 5.09375 -6.59375 L 6.828125 -6.59375 L 6.828125 0 L 4.921875 0 Z M 2.265625 -4.015625 "/></g></g></g><g fill="#27aae2" fill-opacity="1"><g transform="translate(112.149134, 68.222579)"><g><path d="M 3.734375 -1.265625 C 4.179688 -1.265625 4.535156 -1.347656 4.796875 -1.515625 C 5.054688 -1.679688 5.1875 -1.929688 5.1875 -2.265625 L 6.953125 -2.265625 C 6.847656 -1.554688 6.507812 -0.988281 5.9375 -0.5625 C 5.375 -0.144531 4.640625 0.0625 3.734375 0.0625 C 2.585938 0.0625 1.695312 -0.316406 1.0625 -1.078125 C 0.550781 -1.679688 0.296875 -2.398438 0.296875 -3.234375 C 0.296875 -4.128906 0.550781 -4.898438 1.0625 -5.546875 C 1.695312 -6.328125 2.585938 -6.71875 3.734375 -6.71875 C 4.640625 -6.71875 5.375 -6.503906 5.9375 -6.078125 C 6.507812 -5.660156 6.847656 -5.097656 6.953125 -4.390625 L 5.1875 -4.390625 C 5.1875 -4.722656 5.0625 -4.972656 4.8125 -5.140625 C 4.5625 -5.304688 4.21875 -5.390625 3.78125 -5.390625 C 3.269531 -5.390625 2.851562 -5.179688 2.53125 -4.765625 C 2.207031 -4.359375 2.046875 -3.847656 2.046875 -3.234375 C 2.046875 -2.640625 2.195312 -2.160156 2.5 -1.796875 C 2.8125 -1.441406 3.222656 -1.265625 3.734375 -1.265625 Z M 3.734375 -1.265625 "/></g></g></g></svg>